<svg xmlns="http://www.w3.org/2000/svg" viewBox="0 0 100 100">
  <circle cx="50" cy="50" r="45" fill="#25D366"/>
  <path d="M50 15c-19.33 0-35 15.67-35 35 0 6.17 1.6 12.15 4.63 17.45L15 85l17.98-4.72C37.96 82.87 43.87 84.5 50 84.5c19.33 0 35-15.67 35-35S69.33 15 50 15zm0 64c-5.5 0-10.89-1.5-15.56-4.33l-1.11-.66-11.5 3.02 3.07-11.21-.72-1.15C21.28 60.08 19.5 55.12 19.5 50c0-16.82 13.68-30.5 30.5-30.5S80.5 33.18 80.5 50 66.82 79 50 79z" fill="white"/>
  <path d="M67.5 58.5c-1-.5-5.83-2.88-6.73-3.21-.9-.33-1.56-.5-2.21.5-.66 1-2.54 3.21-3.12 3.87-.57.66-1.15.75-2.15.25-1-.5-4.21-1.55-8.02-4.95-2.96-2.64-4.96-5.91-5.54-6.91-.58-1-.06-1.54.44-2.04.45-.45 1-1.17 1.5-1.75.5-.58.66-1 1-1.66.33-.67.17-1.25-.08-1.75-.25-.5-2.21-5.33-3.03-7.3-.8-1.92-1.61-1.66-2.21-1.69-.57-.03-1.23-.03-1.89-.03s-1.73.25-2.63 1.25c-.9 1-3.45 3.37-3.45 8.21s3.53 9.52 4.02 10.18c.5.67 6.95 10.61 16.84 14.88 2.35 1.01 4.19 1.62 5.62 2.07 2.36.75 4.51.65 6.21.39 1.9-.28 5.83-2.38 6.66-4.68.82-2.3.82-4.27.57-4.68-.24-.41-.9-.66-1.9-1.16z" fill="white"/>
</svg>
